<?xml version="1.0" encoding="UTF-8"?>
<svg id="_레이어_2" data-name="레이어 2" xmlns="http://www.w3.org/2000/svg" viewBox="0 0 71.33 21.63">
  <defs>
    <style>
      .cls-1 {
        fill: #fff;
        font-family: H2gtrE, HYGothic-Extra;
        font-size: 13.74px;
      }

      .cls-2 {
        fill: #e7251e;
      }

      .cls-3 {
        fill: #f5aa30;
      }
    </style>
  </defs>
  <g id="_레이어_4" data-name="레이어 4">
    <g>
      <rect class="cls-2" x="10.59" y="0" width="60.74" height="21.63" rx="9.14" ry="9.14"/>
      <text class="cls-1" transform="translate(16.48 16.01) scale(.99 1)"><tspan x="0" y="0">큐티ON</tspan></text>
      <path class="cls-3" d="M12.96,9.14l-4.65,.04-2.38,.02h-1.03c-.2,.01-.39,.02-.59,.01s-.65-.11-.03,.04c-.45-.11,.3,.2,.08,.07-.16-.1-.09-.04,.23,.18,.14,.13,.23,.28,.28,.46,.12,.29,.16,.62,.08,.92-.04,.18-.11,.33-.24,.46-.14,.17-.14,.18,0,.03-.11,.14-.24,.23-.41,.28-.2,.08-.21,.08,0,.01,.13-.03,.26-.07,.39-.09,.54-.1-.21,0,.07-.02,.17-.02,.33-.04,.5-.05,1.53-.14,3.07-.08,4.61-.02,1.31,.05,2.56-1.19,2.5-2.5-.06-1.4-1.1-2.45-2.5-2.5-2.1-.08-4.18-.11-6.26,.23-1.21,.2-2.34,.8-3.01,1.85-.75,1.17-.79,2.69-.02,3.86,1.43,2.17,4.15,1.78,6.4,1.76l6-.06c1.31-.01,2.56-1.14,2.5-2.5s-1.1-2.51-2.5-2.5h0Z"/>
    </g>
  </g>
</svg>