<?xml version="1.0" encoding="UTF-8"?>
<svg id="_레이어_2" data-name="레이어 2" xmlns="http://www.w3.org/2000/svg" viewBox="0 0 32.51 29">
  <defs>
    <style>
      .cls-1 {
        fill: #231815;
        stroke: #231815;
        stroke-width: .5px;
      }

      .cls-1, .cls-2 {
        stroke-linejoin: round;
      }

      .cls-1, .cls-2, .cls-3 {
        stroke-linecap: round;
      }

      .cls-4, .cls-2 {
        fill: #eca635;
        stroke: #eca635;
      }

      .cls-4, .cls-3 {
        stroke-miterlimit: 10;
      }

      .cls-3 {
        fill: #fff;
        stroke: #fff;
      }
    </style>
  </defs>
  <g id="_레이어_2-2" data-name="레이어 2">
    <g>
      <path class="cls-4" d="M22.05,24.33l-12.53,4.07c-.95,.31-1.97-.21-2.28-1.16L.59,6.94c-.31-.95,.21-1.97,1.16-2.28L14.28,.59c.95-.31,1.97,.21,2.28,1.16l6.64,20.31c.31,.95-.21,1.97-1.16,2.28Z"/>
      <line class="cls-3" x1="4.22" y1="8.66" x2="13.9" y2="5.1"/>
      <line class="cls-3" x1="5.85" y1="12.69" x2="15.54" y2="9.13"/>
      <line class="cls-3" x1="7.17" y1="16.72" x2="16.85" y2="13.16"/>
      <g>
        <polygon class="cls-2" points="28.21 5.1 22.09 17.09 22.09 23.68 26.27 20.89 32.01 8.11 28.21 5.1"/>
        <path class="cls-1" d="M22.09,21.27v2.41l1.66-1.11s-.18-1.56-1.66-1.31Z"/>
      </g>
    </g>
  </g>
</svg>